<svg width="216" height="49" viewBox="0 0 216 49" fill="none" xmlns="http://www.w3.org/2000/svg">
<g clip-path="url(#clip0_140_139)">
<path fill-rule="evenodd" clip-rule="evenodd" d="M107.999 39.9183C107.605 39.9183 107.314 40.2153 107.312 40.2219C107.294 40.235 100.305 46.9339 100.305 46.9339C97.7274 49.4324 94.3055 48.3864 93.9398 48.2647C93.9398 48.2647 64.0635 40.0795 64.0596 40.0768C58.3582 38.3496 57.2252 36.4866 56.3528 34.2233C56.3528 34.2233 55.8461 32.8157 54.605 32.4473C54.605 32.4473 18.0839 21.6802 18.0809 21.6802C16.5906 21.2182 15.7705 20.7956 15.1846 19.6561C15.1846 19.6561 13.1802 16.1108 13.1736 16.1013C12.7286 15.2514 11.9233 15.1615 11.8767 15.1549C9.1146 14.7799 8.30465 13.2337 7.96213 12.5748L6.333 9.70146C5.82344 8.81113 5.09474 8.73614 5.07236 8.7333C3.50192 8.63299 2.75442 8.23571 2.1051 7.16441C2.1051 7.16441 0.512271 4.5038 0.505686 4.49077C-0.277184 3.03824 -0.00650836 1.99791 0.354642 1.38131C1.11513 0.11618 2.50743 0.0196474 3.06629 0H90.3954C92.8682 0 94.8662 0.752616 96.3433 2.24065C97.4044 3.30252 98.1349 4.68761 98.5128 6.35662C98.5195 6.39591 98.6221 6.74464 99.3694 6.74464H116.631C117.378 6.74464 117.481 6.3961 117.487 6.35662C117.865 4.6876 118.596 3.30233 119.657 2.24065C121.134 0.752423 123.132 0 125.605 0H212.934C213.493 0.0196467 214.885 0.116179 215.645 1.38131C216.007 1.99791 216.277 3.03824 215.494 4.49077C215.487 4.50399 213.895 7.16441 213.895 7.16441C213.245 8.23553 212.498 8.63299 210.928 8.7333C210.905 8.73614 210.176 8.81113 209.667 9.70146L208.038 12.5748C207.695 13.2335 206.885 14.7799 204.123 15.1549C204.077 15.1615 203.271 15.2514 202.826 16.1013C202.819 16.1108 200.815 19.6561 200.815 19.6561C200.229 20.7958 199.409 21.2184 197.919 21.6802C197.916 21.6802 161.395 32.4473 161.395 32.4473C160.154 32.8157 159.647 34.2233 159.647 34.2233C158.775 36.4864 157.642 38.3496 151.94 40.0768C151.937 40.0794 122.06 48.2647 122.06 48.2647C121.695 48.3866 118.273 49.4324 115.695 46.9339C115.695 46.9339 108.706 40.2351 108.688 40.2219C108.686 40.2152 108.394 39.9183 107.999 39.9183Z" fill="black"/>
<path fill-rule="evenodd" clip-rule="evenodd" d="M119.073 6.71184C119.378 5.35282 119.963 4.23863 120.801 3.39609C121.963 2.2275 123.58 1.63338 125.601 1.63338C125.601 1.63338 145.135 1.63338 165.719 1.63338C164.34 2.66993 163.616 3.98096 163.567 4.06823C163.103 4.94251 162.522 5.96584 161.832 7.11214H118.932C119.02 6.95478 119.073 6.71184 119.073 6.71184ZM214.064 3.70911C214.042 3.74462 212.497 6.32476 212.497 6.32476C212.204 6.80931 212.023 7.02863 210.82 7.10552C210.813 7.10552 163.31 7.11195 163.31 7.11195C163.841 6.20858 164.297 5.38852 164.68 4.67445C164.693 4.64914 166.375 1.63717 169.363 1.63717L212.887 1.63339C213.343 1.65304 213.936 1.70461 214.25 2.22468C214.288 2.29495 214.378 2.44022 214.378 2.70168C214.378 2.93403 214.304 3.26385 214.064 3.70911ZM208.253 8.89448L206.595 11.8194C206.368 12.2524 206.019 12.9205 204.911 13.3048C203.984 13.5371 202.141 13.389 201.503 13.3114L161.092 10.6151C161.614 9.83735 162.098 9.08851 162.54 8.37803H208.602C208.482 8.53256 208.363 8.70047 208.253 8.89448ZM201.384 15.3384C201.394 15.3261 199.794 18.1545 199.461 18.7422C199.379 18.8519 198.925 19.3486 197.444 19.1517L158.721 13.9346C159.252 13.2373 159.754 12.5457 160.226 11.8775L201.361 14.6188C201.421 14.6254 201.595 14.6451 201.842 14.6676C201.673 14.8616 201.519 15.0805 201.384 15.3384ZM188.065 22.887C186.607 23.2751 183.756 22.8355 182.766 22.6294C182.766 22.6294 164.551 18.8704 156.157 17.1366C156.739 16.4496 157.298 15.7684 157.828 15.0936L196.716 20.336L188.065 22.887ZM174.875 26.7744C173.004 27.2777 170.562 26.4642 170.539 26.4576L170.51 26.4482C170.51 26.4482 170.506 26.4454 170.503 26.4454L152.693 20.9275C153.576 20.0268 154.415 19.1319 155.205 18.235L182.511 23.872C182.571 23.8813 183.13 23.9977 183.916 24.1072L174.875 26.7744ZM160.963 30.8783C159.698 31.2232 157.835 30.4903 157.216 30.1773C157.216 30.1773 152.451 27.9366 147.557 25.6377C149.027 24.4268 150.4 23.1908 151.679 21.9415L170.148 27.6657C170.183 27.6787 170.519 27.7885 171.033 27.9047L160.963 30.8783ZM158.112 33.6776C157.574 35.0627 157.012 36.4891 153.223 37.9192C151.659 38.4073 149.799 37.0184 149.784 37.0026C149.777 36.9961 145.559 33.9643 140.756 30.5128C142.708 29.3028 144.611 27.9721 146.458 26.5196L156.664 31.317C156.719 31.346 157.772 31.8791 159.047 32.1181C158.438 32.8154 158.161 33.5351 158.112 33.6776ZM143.838 40.606L142.416 40.9931C141.218 41.2808 139.757 40.0895 139.29 39.5948C139.29 39.5948 136.994 37.1966 134.044 34.103C135.931 33.2446 137.775 32.2859 139.575 31.2268L149.033 38.0231C149.072 38.055 149.612 38.4617 150.406 38.8074C148.304 39.3819 143.838 40.606 143.838 40.606ZM131.333 44.0313C130.334 44.1896 129.175 42.5431 128.839 41.9291L125.987 37.0804C128.317 36.4056 130.595 35.5978 132.81 34.6455L138.373 40.4764C138.423 40.5252 139.039 41.1671 139.931 41.6741L131.333 44.0313ZM121.862 46.6235C121.191 46.779 120.623 46.7106 120.136 46.4146C119.089 45.7718 118.741 44.2928 118.721 44.2057L117.267 38.9332C119.811 38.5781 122.296 38.0776 124.725 37.432L127.743 42.5629C127.846 42.7465 128.458 43.8188 129.377 44.5676L121.862 46.6235ZM115.725 44.7099C115.725 44.7099 111.679 40.832 110.306 39.5209C112.232 39.4535 114.132 39.3111 115.998 39.0917L117.487 44.4832C117.529 44.6706 117.826 45.8524 118.652 46.7925C117.512 46.4662 117.167 46.1269 115.725 44.7099ZM108.631 38.2875V21.8611H111.242L115.656 37.8555C113.359 38.1198 111.018 38.2651 108.631 38.2875ZM100.34 37.8555L104.756 21.8611H107.367V38.2849C104.976 38.2652 102.636 38.1169 100.34 37.8555ZM99.1806 45.7519C98.6086 46.3105 97.9657 46.6235 97.3433 46.7921C98.1756 45.8492 98.4649 44.6638 98.5087 44.4802L99.9972 39.0981C101.863 39.3146 103.763 39.4561 105.688 39.5207C104.147 40.9931 99.1806 45.7519 99.1806 45.7519ZM97.2742 44.1962C97.2742 44.2122 96.9317 45.7557 95.8577 46.4146C95.3705 46.7108 94.8051 46.779 94.1332 46.6236L86.6186 44.5675C87.5367 43.8149 88.1556 42.7428 88.2618 42.546C88.258 42.5498 89.5347 40.3831 91.2656 37.4357C93.6955 38.0814 96.1842 38.5819 98.7288 38.9332L97.2742 44.1962ZM84.6627 44.0313L76.0649 41.6743C76.9569 41.1644 77.5755 40.5216 77.6224 40.4738C77.6224 40.4738 80.0803 37.8965 83.1858 34.6455C85.4038 35.5948 87.6752 36.4082 90.0061 37.083L87.1656 41.9168C86.8195 42.5429 85.6602 44.1896 84.6627 44.0313ZM73.578 40.9931L65.5894 38.8076C66.3862 38.4591 66.9304 38.0486 66.9752 38.0129C66.9685 38.0195 71.4384 34.8069 76.4204 31.227C78.2205 32.2823 80.0643 33.2448 81.9539 34.1032L76.7059 39.595C76.2385 40.0897 74.7772 41.2806 73.578 40.9931ZM62.7621 37.9192C58.9894 36.4889 58.424 35.0655 57.8874 33.6842C57.8435 33.5614 57.5674 32.8248 56.9487 32.1181C58.2263 31.8754 59.2825 31.3432 59.3515 31.3075C59.3412 31.3103 64.4548 28.9121 69.5405 26.5196C71.3826 27.9721 73.2861 29.3057 75.2382 30.5128L66.2241 36.9895C66.1951 37.0186 64.326 38.4139 62.7621 37.9192ZM55.0356 30.8783C54.6549 30.7648 50.4204 29.5155 44.9623 27.9047C45.4829 27.7885 45.8255 27.6723 45.8637 27.6591C45.8478 27.6658 60.8302 23.0229 64.3192 21.9416C65.5984 23.188 66.9712 24.4268 68.4408 25.6349L58.7977 30.168C58.1595 30.4903 56.3 31.2233 55.0356 30.8783ZM41.1301 26.7773C38.1608 25.903 35.0303 24.9798 32.0777 24.1072C32.8653 23.9976 33.4279 23.8813 33.4867 23.8682C33.4839 23.8721 52.7645 19.8909 60.7931 18.235C61.5872 19.1289 62.4196 20.0268 63.3023 20.9275L45.4727 26.452C45.4324 26.4642 43.001 27.2749 41.1301 26.7773ZM27.9429 22.8908C23.9313 21.7026 20.6709 20.7439 19.2796 20.3362L58.1729 15.0938C58.7039 15.7648 59.2599 16.446 59.8414 17.134L33.23 22.6295C32.2426 22.8356 29.4042 23.2751 27.9429 22.8908ZM18.5546 19.1515C17.0839 19.3484 16.6221 18.861 16.5373 18.7448L14.6019 15.3223C14.4704 15.0675 14.3145 14.8548 14.1531 14.6672C14.4012 14.6447 55.7767 11.8772 55.7767 11.8772C56.2481 12.5454 56.7471 13.2332 57.2781 13.9342L18.5546 19.1515ZM11.0886 13.3046C9.979 12.9204 9.62725 12.2522 9.40059 11.8192C8.72212 10.661 7.82996 8.93001 7.3915 8.37802H53.4615C53.9037 9.08832 54.3843 9.83716 54.9097 10.6151L14.4925 13.3114C13.8581 13.3892 12.0142 13.537 11.0886 13.3046ZM5.18924 7.11175C4.07965 7.02844 3.84358 6.89621 3.49466 6.32079C3.49842 6.32457 2.04648 3.90011 1.9308 3.70892C1.69003 3.26385 1.61065 2.93383 1.621 2.70147C1.64808 2.10735 2.05024 1.64905 3.10943 1.63299L46.6356 1.63677C49.5816 1.63677 51.3191 4.67406 51.3191 4.67406C51.7017 5.38814 52.158 6.20819 52.6919 7.11155L5.18924 7.11175ZM90.394 1.63317C92.4179 1.63317 94.0314 2.22729 95.1941 3.39588C96.033 4.23842 96.6153 5.35262 96.9251 6.71163C96.9251 6.71163 96.9876 6.94398 97.067 7.11174H54.1677C53.5118 6.03023 52.4312 4.06783 52.4312 4.06783C52.3836 3.98074 51.6585 2.66952 50.2793 1.63298C70.8635 1.63298 90.394 1.63317 90.394 1.63317ZM152.516 10.047V8.378H161.045C160.611 9.06204 160.137 9.77895 159.63 10.5183L152.516 10.047ZM152.516 13.1011V11.3647L158.744 11.7778C158.284 12.4197 157.792 13.0749 157.279 13.744L152.516 13.1011ZM152.516 16.388V14.3797L156.368 14.8999C155.85 15.5428 155.307 16.1913 154.741 16.8463C153.748 16.6402 152.983 16.4845 152.516 16.388ZM152.516 17.6829L153.773 17.9406C153.368 18.3895 152.947 18.8449 152.516 19.294V17.6829ZM139.522 21.8609H149.932C148.871 22.9199 146.367 24.9694 146.285 25.0378C143.753 23.8457 141.284 22.6902 139.522 21.8609ZM128.717 21.8609H136.541L145.17 25.916C143.377 27.2947 141.533 28.5598 139.638 29.7125C135.473 26.7164 131.085 23.5618 128.717 21.8609ZM122.352 21.8609H126.55L138.445 30.4162C136.712 31.4142 134.93 32.3216 133.114 33.1284C129.197 29.0283 124.479 24.0849 122.352 21.8609ZM117.035 21.8609H120.6L131.871 33.6643C129.743 34.5556 127.557 35.3137 125.322 35.9501L117.035 21.8609ZM115.567 21.8609L124.058 36.2923C121.734 36.8996 119.353 37.3643 116.924 37.697L112.552 21.8609L115.567 21.8609ZM100.428 21.8609H103.443L99.0715 37.697C96.6388 37.3643 94.262 36.8994 91.9377 36.2958C95.1188 30.8913 99.3637 23.6714 100.428 21.8609ZM95.3951 21.8609H98.9606L90.6742 35.9501C88.4385 35.3177 86.2558 34.5556 84.1227 33.6607C88.6429 28.931 94.0822 23.2355 95.3951 21.8609ZM89.4463 21.8609H93.6436L82.8854 33.1284C81.0657 32.3216 79.2882 31.4144 77.5488 30.4162C82.7118 26.7032 88.0933 22.8326 89.4463 21.8609ZM69.7113 25.0378C69.6161 24.9599 67.1227 22.8551 66.0636 21.8609H76.4727L69.7113 25.0378ZM79.455 21.8609H87.2766L76.357 29.7095C74.4608 28.5596 72.617 27.2945 70.8263 25.9158C74.9256 23.9882 78.7216 22.2058 79.455 21.8609ZM63.4696 17.6829V19.2807C63.0422 18.8357 62.6269 18.3866 62.2257 17.9406C62.7249 17.8348 63.143 17.7504 63.4696 17.6829ZM63.4696 14.3795V16.3878L61.2543 16.8461C60.6889 16.1881 60.1487 15.5426 59.6316 14.8997L63.4696 14.3795ZM63.4696 11.3647V13.1011L58.7199 13.744C58.2058 13.0749 57.7186 12.4197 57.2587 11.7778L63.4696 11.3647ZM63.4696 10.047L56.373 10.5183C55.8615 9.77895 55.3903 9.06203 54.9564 8.37799H63.4694L63.4696 10.047Z" fill="white"/>
<path fill-rule="evenodd" clip-rule="evenodd" d="M64.754 20.5919C64.7474 20.5853 64.7418 20.5786 64.7354 20.5723V8.38459H151.255V20.5789C151.253 20.5856 151.249 20.5856 151.246 20.5884L64.754 20.5919Z" fill="url(#paint0_linear_140_139)"/>
<path fill-rule="evenodd" clip-rule="evenodd" d="M70.484 10.331H70.1229L66.4258 18.6379H67.427L67.4429 18.5901C67.7424 17.5789 68.128 16.6109 68.5021 15.6811C68.5021 15.6811 68.5553 15.5481 68.5796 15.4842C68.671 15.4842 71.3473 15.4842 71.4387 15.4842C71.8251 16.3679 72.2206 17.382 72.6444 18.5927L72.6612 18.6377H74.0431L70.484 10.331ZM68.8594 14.851C68.935 14.6674 69.9054 12.3844 70.0211 12.1135C70.1349 12.3844 71.1241 14.6672 71.2024 14.851C71.0082 14.851 69.049 14.851 68.8594 14.851Z" fill="white"/>
<path fill-rule="evenodd" clip-rule="evenodd" d="M74.4414 18.0473L74.4723 18.0792C74.909 18.5572 75.8934 18.7803 76.4234 18.7803C78.1583 18.7803 79.373 17.6567 79.373 16.043C79.373 14.7057 78.3652 14.312 77.391 13.9249C76.5259 13.579 75.703 13.2596 75.703 12.2718C75.703 11.522 76.2918 10.9804 77.0979 10.9804C77.7428 10.9804 78.2297 11.3225 78.4771 11.9486L78.4938 11.9935H78.7141L79.0593 10.9447L79.0211 10.9092C78.5499 10.4828 77.8248 10.3309 77.3088 10.3309C75.6917 10.3309 74.6485 11.2381 74.6485 12.6458C74.6485 14.0796 75.7132 14.4958 76.6501 14.8706C77.4975 15.1995 78.2924 15.5163 78.2924 16.5013C78.2924 17.415 77.6139 18.1348 76.75 18.1348C75.9586 18.1348 75.4333 17.7927 74.922 16.953L74.9024 16.921H74.6822L74.4414 18.0473Z" fill="white"/>
<path fill-rule="evenodd" clip-rule="evenodd" d="M85.9005 10.5023H79.8184V11.3579L79.8968 11.3513C80.5948 11.2772 81.2696 11.2126 82.3695 11.2088C82.3695 11.3541 82.3695 18.664 82.3695 18.664H83.5378C83.5378 18.664 83.5378 11.3579 83.5378 11.2126C84.3636 11.2126 85.153 11.2604 85.8911 11.3513L85.9733 11.3607V10.5023L85.9005 10.5023Z" fill="white"/>
<path fill-rule="evenodd" clip-rule="evenodd" d="M90.0908 10.331C87.5107 10.331 85.7061 12.0778 85.7061 14.5735C85.7061 17.0917 87.4612 18.7803 90.0685 18.7803C92.7634 18.7803 94.5783 17.0176 94.5783 14.3963C94.5783 11.5866 92.323 10.331 90.0908 10.331ZM92.251 17.3306C91.6771 17.9406 90.9566 18.251 90.1001 18.251C88.2113 18.251 86.9898 16.8631 86.9898 14.7161C86.9898 12.3366 88.2243 10.8607 90.2063 10.8607C91.1414 10.8607 92.0241 11.274 92.5691 11.9647C93.1681 12.7331 93.2904 13.5345 93.2904 14.4932C93.2939 14.5448 93.2969 14.6028 93.2969 14.6581C93.2969 15.4387 92.9808 16.5463 92.251 17.3306Z" fill="white"/>
<path fill-rule="evenodd" clip-rule="evenodd" d="M102.68 10.5023H101.955C101.955 10.5023 101.955 16.3812 101.955 16.5236C101.949 16.5236 101.946 16.5236 101.942 16.5236C101.9 16.4749 96.4075 10.5023 96.4075 10.5023H95.8486V18.6379H96.6456C96.6456 18.6379 96.6456 12.4872 96.6456 12.3421C96.6522 12.3421 96.6559 12.3421 96.6623 12.3421C96.7052 12.3908 101.669 17.9087 101.669 17.9087L102.291 18.6379H102.328H102.752V10.5023L102.68 10.5023Z" fill="white"/>
<path fill-rule="evenodd" clip-rule="evenodd" d="M115.769 10.5023H115.482L113.52 14.0757C113.52 14.0757 112.279 16.3492 112.166 16.5527C110.956 14.5248 109.866 12.3908 108.938 10.5408L108.918 10.5023H108.506L108.5 10.5697C108.384 11.7712 107.687 16.6687 107.383 18.557L107.367 18.6377H108.349V18.5674C108.349 17.4213 108.551 15.7128 108.767 13.9014C108.767 13.9014 108.858 13.1009 108.896 12.7815C109.034 13.0458 110.558 15.952 111.14 17.1495L111.799 18.5121H112.019L112.038 18.4671C112.716 16.9039 113.672 15.1187 114.981 12.7683C115.166 14.1692 115.412 16.9687 115.547 18.5731L115.555 18.6377H116.796L116.784 18.557C116.505 16.5842 116.199 13.9726 115.841 10.5697L115.834 10.5023L115.769 10.5023Z" fill="white"/>
<path fill-rule="evenodd" clip-rule="evenodd" d="M121.325 10.331H120.962L117.263 18.6379H118.27L118.283 18.5901C118.583 17.5696 118.97 16.5977 119.346 15.6614C119.346 15.6614 119.393 15.5453 119.415 15.4842C119.507 15.4842 122.183 15.4842 122.276 15.4842C122.67 16.3878 123.075 17.427 123.48 18.5927L123.497 18.6377H124.881L121.325 10.331ZM119.698 14.851C119.774 14.6674 120.745 12.3844 120.861 12.1135C120.977 12.3844 121.963 14.6672 122.042 14.851C121.847 14.851 119.89 14.851 119.698 14.851Z" fill="white"/>
<path fill-rule="evenodd" clip-rule="evenodd" d="M128.438 14.6187C129.9 14.3217 130.775 13.4856 130.775 12.3553C130.775 11.1127 129.907 10.5025 128.116 10.5025H125.578V18.6381H126.744C126.744 18.6381 126.744 14.8801 126.744 14.7386C126.835 14.7386 127.033 14.7386 127.083 14.7386C127.121 14.7864 127.991 15.8135 127.991 15.8135C127.987 15.8097 129.364 17.5987 129.364 17.5987L130.118 18.6381H130.158H131.645C131.645 18.6381 128.576 14.79 128.438 14.6187ZM126.743 14.1537C126.743 14.0243 126.743 11.2092 126.743 11.0798C127.224 11.0573 127.969 11.0256 128.374 11.0902C129.182 11.2222 129.593 11.6966 129.593 12.494C129.593 13.3112 129.059 13.9082 128.158 14.0891C127.651 14.1923 127.039 14.1734 126.743 14.1537Z" fill="white"/>
<path fill-rule="evenodd" clip-rule="evenodd" d="M137.518 10.5023H131.434V11.3579L131.513 11.3513C132.212 11.2772 132.886 11.2126 133.982 11.2088C133.982 11.3541 133.982 18.664 133.982 18.664H135.157C135.157 18.664 135.157 11.3579 135.157 11.2126C135.98 11.2126 136.771 11.2604 137.509 11.3513L137.591 11.3607V10.5023L137.518 10.5023Z" fill="white"/>
<path fill-rule="evenodd" clip-rule="evenodd" d="M139.654 18.6382V10.5023H138.552V18.6382H139.654Z" fill="white"/>
<path fill-rule="evenodd" clip-rule="evenodd" d="M147.479 10.5023C147.479 10.5023 147.479 16.3812 147.479 16.5236C147.475 16.5236 147.472 16.5236 147.469 16.5236C147.426 16.4749 141.935 10.5023 141.935 10.5023H141.375V18.6379H142.173C142.173 18.6379 142.173 12.4872 142.173 12.3421C142.18 12.3421 142.182 12.3421 142.186 12.3421C142.229 12.3908 147.199 17.9087 147.199 17.9087L147.821 18.6379H148.276V10.5023L147.479 10.5023Z" fill="white"/>
</g>
<defs>
<linearGradient id="paint0_linear_140_139" x1="89.7401" y1="-3.8452" x2="126.407" y2="32.6646" gradientUnits="userSpaceOnUse">
<stop stop-color="#339966"/>
<stop offset="1" stop-color="#004F32"/>
</linearGradient>
<clipPath id="clip0_140_139">
<rect width="216" height="49" fill="white"/>
</clipPath>
</defs>
</svg>
